<svg width="32" height="32" viewBox="0 0 32 32" fill="none" xmlns="http://www.w3.org/2000/svg">
<g clip-path="url(#clip0_2096_10592)">
<rect width="32" height="32" fill="#215FFF"/>
<path d="M26.9947 11.186C26.9328 12.1964 26.4991 13.1473 25.7246 13.8902L18.2898 21.022C18.1039 21.2003 17.8871 21.3786 17.6392 21.5271C15.9354 22.6266 13.612 22.4186 12.156 21.022C11.2577 20.1602 10.793 18.9419 10.9169 17.6938C10.9479 16.9509 11.5984 16.3863 12.3729 16.3863C13.1783 16.3863 13.8289 17.0103 13.8289 17.7829C13.8289 18.199 13.643 18.5556 13.3642 18.823C13.4571 19.0607 13.612 19.2984 13.8289 19.4767C14.2006 19.8333 14.7273 20.0413 15.2539 20.0413C15.5947 20.0413 15.9044 19.9819 16.1832 19.8333C16.3691 19.7442 16.524 19.6253 16.6789 19.4767L20.3344 15.9703L18.8164 14.5142L16.6479 12.4341C16.2762 12.0775 15.7495 11.8695 15.2229 11.8695C14.6963 11.8695 14.1696 12.0775 13.7979 12.4341C13.5501 12.6718 13.3642 12.969 13.2713 13.2661C13.612 13.5336 13.8599 13.9199 13.8599 14.3656C13.8599 15.1382 13.2093 15.7623 12.4039 15.7623C11.6604 15.7623 11.0098 15.1977 10.9479 14.4845C10.7 13.1473 11.1337 11.8101 12.156 10.8295C12.9615 10.0568 14.0457 9.61111 15.2229 9.61111C16.3691 9.61111 17.4843 10.0568 18.2898 10.8295L20.4583 12.9096L21.9762 14.3656L24.0828 12.345C24.4855 11.9587 24.6714 11.4832 24.6714 10.9483C24.6714 10.4729 24.4855 10.0271 24.1447 9.70026C23.2463 8.74935 22.1621 8.00646 20.9539 7.47158C19.6838 6.93669 18.3517 6.63954 16.9577 6.63954C14.3555 6.63954 11.9392 7.62015 10.0805 9.37338C8.25274 11.1266 7.23045 13.4742 7.23045 15.9703C7.23045 18.4664 8.25274 20.7842 10.0805 22.5672C11.9082 24.3204 14.3555 25.301 16.9577 25.301C18.3517 25.301 19.6838 25.0336 20.9539 24.469C22.1621 23.9341 23.2463 23.1912 24.1447 22.2403C24.8572 21.4677 24.8262 20.3088 24.0828 19.5659L22.5338 18.0801L24.1757 16.5052L25.7246 17.991C27.3665 19.5659 27.4284 22.062 25.8795 23.7261C24.7643 24.9147 23.4322 25.8359 21.9452 26.4897C20.3963 27.1731 18.7235 27.5 16.9887 27.5C15.3778 27.5 13.7979 27.2028 12.3109 26.6085C10.8859 26.0142 9.58482 25.1822 8.50057 24.1421C7.38534 23.0724 6.51795 21.854 5.92936 20.4871C5.30979 19.0607 5 17.5452 5 16C5 14.4548 5.30979 12.9393 5.92936 11.5129C6.54893 10.146 7.41632 8.89793 8.50057 7.85788C9.6158 6.78811 10.8859 5.95607 12.3109 5.39147C13.7979 4.79716 15.3778 4.5 16.9887 4.5C18.7235 4.5 20.3653 4.85659 21.9452 5.51033C23.4632 6.16408 24.7643 7.08527 25.8795 8.2739C26.3442 8.77907 26.7159 9.4031 26.8708 10.0568C26.9638 10.3243 26.9947 10.77 26.9947 11.186Z" fill="white"/>
</g>
<defs>
<clipPath id="clip0_2096_10592">
<rect width="32" height="32" fill="white"/>
</clipPath>
</defs>
</svg>
